<?xml version="1.0" encoding="utf-8"?>
<!-- Generator: Adobe Illustrator 28.0.0, SVG Export Plug-In . SVG Version: 6.00 Build 0)  -->
<svg version="1.1" id="Layer_1" xmlns="http://www.w3.org/2000/svg" xmlns:xlink="http://www.w3.org/1999/xlink" x="0px" y="0px"
	 viewBox="0 0 1035 372" style="enable-background:new 0 0 1035 372;" xml:space="preserve">
<style type="text/css">
	.st0{fill:#FFFFFF;}
	.st1{fill:#327C3D;}
	.st2{fill:none;stroke:#FFFFFF;stroke-width:5;stroke-miterlimit:10;}
</style>
<path class="st0" d="M143,21c0,0,16,33-40,92S61,214,61,214s3,22,46,54c0,0-57-46-16-110s72.9-72.8,53-137"/>
<path class="st0" d="M150.1,96.2c0,0,62.9,48.8,19.9,104.8s-74,102-55,139c0,0-17-20,63-117C178,223,246.1,139.4,150.1,96.2z"/>
<circle class="st1" cx="220.5" cy="134.5" r="16.5"/>
<circle class="st1" cx="39.5" cy="229.5" r="16.5"/>
<rect x="122" y="120" class="st1" width="45" height="5"/>
<rect x="101" y="149" class="st1" width="78" height="5"/>
<rect x="84" y="179" class="st1" width="91" height="5"/>
<rect x="81" y="208" class="st1" width="76" height="5"/>
<rect x="92" y="237" class="st1" width="45" height="5"/>
<g>
	<path class="st2" d="M222.4,222.1l-11.1,29.1H209l28.6-74.6h2.2l29.8,74.6h-2.3l-11.6-29.1H222.4z M254.9,220.2
		c-9.4-23.6-14.7-37.7-16.2-41.5h-0.1c-0.7,2.8-8.1,22.1-15.5,41.5H254.9z"/>
	<path class="st2" d="M282.6,210.5c0-4.3,0-9.5-0.1-12h2.1c0.1,1.8,0.2,8.2,0.1,12.4c1.8-5.9,6.7-13.7,18.2-13.7
		c8.9,0,14.2,5.1,16,12.5c1.6-4.5,6.3-12.5,18.2-12.5c9.4,0,17.3,5.7,17.3,19.5v34.5h-2.2v-34.2c0-9.4-4.5-17.7-15.3-17.7
		c-11.2,0-17.4,8.2-17.4,19.3v32.7h-2.2v-34.6c0-10.1-4.7-17.4-14.7-17.4c-10.5,0-17.9,8.5-17.9,22.8v29.2h-2.1L282.6,210.5
		L282.6,210.5z"/>
	<path class="st2" d="M414.9,224.8c0,17.7-9.3,27.9-23.3,27.9c-13.9,0-22.8-10.7-22.8-27.7c0-18.2,10.3-28,23.3-28
		C405.1,197,414.9,207.2,414.9,224.8z M371,224.9c0,14,7,25.9,20.6,25.9c13.7,0,21.1-11.1,21.1-25.9c0-14.2-7.3-26-20.8-26
		C378.3,198.9,371,211,371,224.9z"/>
	<path class="st2" d="M429.3,211.3c0-5.2-0.1-11.7-0.1-12.8h2.1c0.1,2.4,0.2,7,0.1,13.3c1.9-5.7,7.3-14.5,20-14.5
		c8.8,0,17.8,5.1,17.8,20.4v33.6H467v-33.4c0-10.5-5.1-18.6-15.9-18.6c-12.6,0-19.7,10.6-19.7,23v28.9h-2.1L429.3,211.3L429.3,211.3
		z"/>
	<path class="st2" d="M488.6,214.6v36.6h-2.2v-74.6h24.6c13.1,0,22.6,6,22.6,19.1c0,8.8-4.2,15.9-15.6,17.8
		c8.1,1.4,14.4,5.2,14.4,20.8v1.4c0,9.9,0.2,13.6,1,15.6H531c-0.8-3.4-0.7-8.1-0.7-15.6v-1c0-13.1-3.4-20-20-20H488.6z M488.6,212.6
		h20.8c11.9,0,22-3.7,22-16.9c0-10.8-7.3-17.3-20.4-17.3h-22.4V212.6z"/>
	<path class="st2" d="M592.6,224.8c0,17.7-9.3,27.9-23.3,27.9c-13.9,0-22.8-10.7-22.8-27.7c0-18.2,10.3-28,23.3-28
		C582.7,197,592.6,207.2,592.6,224.8z M548.7,224.9c0,14,7,25.9,20.6,25.9c13.7,0,21.1-11.1,21.1-25.9c0-14.2-7.3-26-20.8-26
		C555.9,198.9,548.7,211,548.7,224.9z"/>
	<path class="st2" d="M606.9,251.2v-79.6h2.1v79.6H606.9z"/>
	<path class="st2" d="M627.5,251.2v-79.6h2.1v79.6H627.5z"/>
	<path class="st2" d="M690,224.8c0,17.7-9.3,27.9-23.3,27.9c-13.9,0-22.8-10.7-22.8-27.7c0-18.2,10.3-28,23.3-28
		C680.2,197,690,207.2,690,224.8z M646.1,224.9c0,14,7,25.9,20.6,25.9c13.7,0,21.1-11.1,21.1-25.9c0-14.2-7.3-26-20.8-26
		C653.4,198.9,646.1,211,646.1,224.9z"/>
	<path class="st2" d="M697.1,198.5h9.9V181h2.1v17.5h13.2v1.9h-13.2v39.9c0,5.7,1.2,10,7.7,10c1.4,0,3.3-0.1,4.2-0.5v1.9
		c-1.4,0.5-3,0.6-4.3,0.6c-7,0-9.8-3.1-9.8-12.5v-39.3h-9.9V198.5L697.1,198.5z"/>
	<path class="st2" d="M730.1,224.2c0,16.4,8.2,26.1,19.6,26.1c10.4,0,15.4-5.6,18.5-12.5h2.1c-3.2,8.3-9.2,14.4-20.5,14.4
		c-16.2,0-21.8-14.5-21.8-27.6c0-16.9,9.1-27.5,22.1-27.5c16.3,0,21.4,14.3,21.4,24.4c0,1.2,0,1.5-0.1,2.7L730.1,224.2L730.1,224.2z
		 M769.5,222.3c0-12.7-6.4-23.2-19.5-23.2c-11.7,0-19.1,9.7-19.7,23.2H769.5z"/>
	<path class="st2" d="M824.5,236.9c-3.2,11.1-10.4,15.6-20,15.6c-13.8,0-22.3-10.6-22.3-27.6c0-16.6,9.3-27.7,22.8-27.7
		c11.6,0,17.8,7.8,19.5,16h-2.2c-2.1-8-7.2-14.1-17.5-14.1c-13.6,0-20.4,12.1-20.4,25.8c0,14.6,6.7,25.7,20.1,25.7
		c9.1,0,14.9-4.9,17.8-13.7L824.5,236.9L824.5,236.9z"/>
	<path class="st2" d="M840.6,171.5v39.8c1.9-5.7,7.1-14.1,20-14.1c8.5,0,17.8,4.8,17.8,20v33.9h-2.2v-33.7
		c0-10.5-5.3-18.2-15.9-18.2c-12.9,0-19.7,9.8-19.7,22.6v29.4h-2.1v-79.6H840.6z"/>
	<path class="st2" d="M896.9,211.3c0-5.2-0.1-11.7-0.1-12.8h2.1c0.1,2.4,0.2,7,0.1,13.3c1.9-5.7,7.3-14.5,20-14.5
		c8.8,0,17.8,5.1,17.8,20.4v33.6h-2.2v-33.4c0-10.5-5.1-18.6-15.9-18.6c-12.6,0-19.7,10.6-19.7,23v28.9H897L896.9,211.3L896.9,211.3
		z"/>
	<path class="st2" d="M955.4,181.2v-9.7h2.1v9.7H955.4z M955.4,198.5h2.1v52.7h-2.1V198.5z"/>
	<path class="st2" d="M978.1,226.7c5.2-4.8,23.2-21.1,31-28.2h3L988,220.3c7.8,9.2,19.2,22.2,27,30.9h-3
		c-6.6-7.5-18.3-21.1-25.7-29.6l-8.3,7.4v22.2H976v-79.6h2.1L978.1,226.7L978.1,226.7z"/>
</g>
</svg>
